<svg width="373" height="83" viewBox="0 0 373 83" fill="none" xmlns="http://www.w3.org/2000/svg">
<path d="M37.7271 0L-0.000183105 20.75V27.4006L39.4039 5.85256V10.375L-0.000183105 31.657V38.5737L39.4039 16.7596V21.016L-0.000183105 42.5641V49.4808L45.552 24.2083V4.30961L37.7271 0Z" fill="#FC832B"/>
<path d="M17.8852 43.6283L-0.000305176 53.4712V62.2501L37.727 83.0001L43.5957 79.8078L3.68858 57.7276L7.82461 55.4398L47.5081 77.6205L53.6563 74.242L13.7492 52.1411L17.6058 50.0129L57.5687 72.093L63.7169 68.7092L17.8852 43.6283Z" fill="#FC832B"/>
<path d="M55.3113 9.66852L49.1848 6.30164V56.2671L67.4057 66.6715L75.4542 62.2501V20.7501L69.306 17.3708V60.7896L65.3936 58.7648V15.2176L59.2454 11.8362V55.3335L55.333 53.2053L55.3113 9.66852Z" fill="#FC832B"/>
<path d="M93.1379 27.6043C93.0621 26.771 92.725 26.1233 92.1265 25.6611C91.5356 25.1914 90.6909 24.9566 89.5925 24.9566C88.8652 24.9566 88.2591 25.0513 87.7743 25.2407C87.2894 25.4301 86.9258 25.6914 86.6834 26.0248C86.4409 26.3505 86.3159 26.7255 86.3084 27.1498C86.2932 27.4983 86.3614 27.8051 86.5129 28.0702C86.672 28.3354 86.8993 28.5702 87.1947 28.7748C87.4978 28.9717 87.8614 29.146 88.2856 29.2975C88.7099 29.449 89.1871 29.5816 89.7175 29.6952L91.7175 30.1498C92.869 30.3998 93.8841 30.7331 94.7629 31.1498C95.6493 31.5664 96.3917 32.0627 96.9902 32.6384C97.5962 33.2142 98.0546 33.8771 98.3652 34.6271C98.6758 35.3771 98.8349 36.218 98.8425 37.1498C98.8349 38.6195 98.4637 39.8808 97.7288 40.9339C96.994 41.9869 95.9371 42.7937 94.5584 43.3543C93.1871 43.9149 91.5318 44.1952 89.5925 44.1952C87.6455 44.1952 85.9485 43.9036 84.5015 43.3202C83.0546 42.7369 81.9296 41.8505 81.1265 40.6611C80.3235 39.4717 79.9106 37.968 79.8879 36.1498H85.2743C85.3197 36.8998 85.5205 37.5248 85.8765 38.0248C86.2326 38.5248 86.7212 38.9036 87.3425 39.1611C87.9712 39.4187 88.6985 39.5475 89.5243 39.5475C90.2818 39.5475 90.9258 39.4452 91.4561 39.2407C91.994 39.0361 92.4068 38.7521 92.6947 38.3884C92.9826 38.0248 93.1303 37.6081 93.1379 37.1384C93.1303 36.699 92.994 36.324 92.7288 36.0134C92.4637 35.6952 92.0546 35.4225 91.5015 35.1952C90.9561 34.9604 90.2591 34.7445 89.4106 34.5475L86.9788 33.9793C84.9637 33.5172 83.3765 32.771 82.2175 31.7407C81.0584 30.7028 80.4826 29.3013 80.4902 27.5361C80.4826 26.0967 80.869 24.8354 81.6493 23.7521C82.4296 22.6687 83.5091 21.824 84.8879 21.218C86.2667 20.6119 87.8387 20.3089 89.6038 20.3089C91.4068 20.3089 92.9712 20.6157 94.297 21.2293C95.6303 21.8354 96.6644 22.6877 97.3993 23.7861C98.1341 24.8846 98.5091 26.1574 98.5243 27.6043H93.1379ZM115.763 20.6271H121.377V35.6384C121.377 37.3733 120.964 38.8846 120.138 40.1725C119.312 41.4528 118.161 42.4452 116.683 43.1498C115.206 43.8467 113.49 44.1952 111.536 44.1952C109.558 44.1952 107.831 43.8467 106.354 43.1498C104.877 42.4452 103.729 41.4528 102.911 40.1725C102.092 38.8846 101.683 37.3733 101.683 35.6384V20.6271H107.308V35.1498C107.308 35.9528 107.483 36.6687 107.831 37.2975C108.187 37.9263 108.683 38.4187 109.32 38.7748C109.956 39.1308 110.695 39.3089 111.536 39.3089C112.377 39.3089 113.111 39.1308 113.74 38.7748C114.377 38.4187 114.873 37.9263 115.229 37.2975C115.585 36.6687 115.763 35.9528 115.763 35.1498V20.6271ZM124.902 43.8998V20.6271H134.516C136.258 20.6271 137.762 20.968 139.027 21.6498C140.3 22.324 141.281 23.2672 141.97 24.4793C142.66 25.6839 143.004 27.0854 143.004 28.6839C143.004 30.2899 142.652 31.6952 141.948 32.8998C141.251 34.0967 140.254 35.0248 138.959 35.6839C137.663 36.343 136.126 36.6725 134.345 36.6725H128.413V32.2407H133.3C134.148 32.2407 134.857 32.093 135.425 31.7975C136.001 31.5021 136.436 31.0892 136.732 30.5589C137.027 30.021 137.175 29.396 137.175 28.6839C137.175 27.9642 137.027 27.343 136.732 26.8202C136.436 26.2899 136.001 25.8808 135.425 25.593C134.849 25.3051 134.141 25.1611 133.3 25.1611H130.527V43.8998H124.902ZM145.777 43.8998V20.6271H155.391C157.133 20.6271 158.637 20.9414 159.902 21.5702C161.175 22.1914 162.156 23.0854 162.845 24.2521C163.535 25.4111 163.879 26.7861 163.879 28.3771C163.879 29.9907 163.527 31.3619 162.823 32.4907C162.118 33.6119 161.118 34.468 159.823 35.0589C158.527 35.6422 156.993 35.9339 155.22 35.9339H149.141V31.5021H154.175C155.023 31.5021 155.732 31.3922 156.3 31.1725C156.876 30.9452 157.311 30.6043 157.607 30.1498C157.902 29.6877 158.05 29.0967 158.05 28.3771C158.05 27.6574 157.902 27.0627 157.607 26.593C157.311 26.1157 156.876 25.7596 156.3 25.5248C155.724 25.2824 155.016 25.1611 154.175 25.1611H151.402V43.8998H145.777ZM158.879 33.2634L164.675 43.8998H158.538L152.857 33.2634H158.879ZM172.59 20.6271V43.8998H166.965V20.6271H172.59ZM181.814 20.6271L186.064 27.9793H186.246L190.541 20.6271H196.837L189.814 32.2634L197.064 43.8998H190.609L186.246 36.468H186.064L181.7 43.8998H175.291L182.507 32.2634L175.473 20.6271H181.814ZM219.2 27.6043C219.125 26.771 218.788 26.1233 218.189 25.6611C217.598 25.1914 216.753 24.9566 215.655 24.9566C214.928 24.9566 214.322 25.0513 213.837 25.2407C213.352 25.4301 212.988 25.6914 212.746 26.0248C212.503 26.3505 212.378 26.7255 212.371 27.1498C212.356 27.4983 212.424 27.8051 212.575 28.0702C212.734 28.3354 212.962 28.5702 213.257 28.7748C213.56 28.9717 213.924 29.146 214.348 29.2975C214.772 29.449 215.25 29.5816 215.78 29.6952L217.78 30.1498C218.931 30.3998 219.947 30.7331 220.825 31.1498C221.712 31.5664 222.454 32.0627 223.053 32.6384C223.659 33.2142 224.117 33.8771 224.428 34.6271C224.738 35.3771 224.897 36.218 224.905 37.1498C224.897 38.6195 224.526 39.8808 223.791 40.9339C223.056 41.9869 222 42.7937 220.621 43.3543C219.25 43.9149 217.594 44.1952 215.655 44.1952C213.708 44.1952 212.011 43.9036 210.564 43.3202C209.117 42.7369 207.992 41.8505 207.189 40.6611C206.386 39.4717 205.973 37.968 205.95 36.1498H211.337C211.382 36.8998 211.583 37.5248 211.939 38.0248C212.295 38.5248 212.784 38.9036 213.405 39.1611C214.034 39.4187 214.761 39.5475 215.587 39.5475C216.344 39.5475 216.988 39.4452 217.519 39.2407C218.056 39.0361 218.469 38.7521 218.757 38.3884C219.045 38.0248 219.193 37.6081 219.2 37.1384C219.193 36.699 219.056 36.324 218.791 36.0134C218.526 35.6952 218.117 35.4225 217.564 35.1952C217.019 34.9604 216.322 34.7445 215.473 34.5475L213.041 33.9793C211.026 33.5172 209.439 32.771 208.28 31.7407C207.121 30.7028 206.545 29.3013 206.553 27.5361C206.545 26.0967 206.931 24.8354 207.712 23.7521C208.492 22.6687 209.572 21.824 210.95 21.218C212.329 20.6119 213.901 20.3089 215.666 20.3089C217.469 20.3089 219.034 20.6157 220.359 21.2293C221.693 21.8354 222.727 22.6877 223.462 23.7861C224.197 24.8846 224.572 26.1574 224.587 27.6043H219.2ZM249.712 32.2634C249.712 34.824 249.219 36.9945 248.234 38.7748C247.25 40.5551 245.916 41.9074 244.234 42.8316C242.56 43.7558 240.681 44.218 238.598 44.218C236.507 44.218 234.625 43.7521 232.95 42.8202C231.276 41.8884 229.947 40.5361 228.962 38.7634C227.984 36.9831 227.496 34.8164 227.496 32.2634C227.496 29.7028 227.984 27.5324 228.962 25.7521C229.947 23.9717 231.276 22.6195 232.95 21.6952C234.625 20.771 236.507 20.3089 238.598 20.3089C240.681 20.3089 242.56 20.771 244.234 21.6952C245.916 22.6195 247.25 23.9717 248.234 25.7521C249.219 27.5324 249.712 29.7028 249.712 32.2634ZM243.962 32.2634C243.962 30.7483 243.746 29.468 243.314 28.4225C242.89 27.3771 242.276 26.5854 241.473 26.0475C240.678 25.5096 239.719 25.2407 238.598 25.2407C237.484 25.2407 236.526 25.5096 235.723 26.0475C234.92 26.5854 234.303 27.3771 233.871 28.4225C233.447 29.468 233.234 30.7483 233.234 32.2634C233.234 33.7786 233.447 35.0589 233.871 36.1043C234.303 37.1498 234.92 37.9414 235.723 38.4793C236.526 39.0172 237.484 39.2861 238.598 39.2861C239.719 39.2861 240.678 39.0172 241.473 38.4793C242.276 37.9414 242.89 37.1498 243.314 36.1043C243.746 35.0589 243.962 33.7786 243.962 32.2634ZM252.996 43.8998V20.6271H258.621V39.3316H268.303V43.8998H252.996ZM285.294 20.6271H290.908V35.6384C290.908 37.3733 290.495 38.8846 289.669 40.1725C288.843 41.4528 287.692 42.4452 286.215 43.1498C284.737 43.8467 283.021 44.1952 281.067 44.1952C279.09 44.1952 277.362 43.8467 275.885 43.1498C274.408 42.4452 273.26 41.4528 272.442 40.1725C271.624 38.8846 271.215 37.3733 271.215 35.6384V20.6271H276.84V35.1498C276.84 35.9528 277.014 36.6687 277.362 37.2975C277.718 37.9263 278.215 38.4187 278.851 38.7748C279.487 39.1308 280.226 39.3089 281.067 39.3089C281.908 39.3089 282.643 39.1308 283.271 38.7748C283.908 38.4187 284.404 37.9263 284.76 37.2975C285.116 36.6687 285.294 35.9528 285.294 35.1498V20.6271ZM293.672 25.1952V20.6271H313.342V25.1952H306.286V43.8998H300.74V25.1952H293.672ZM321.715 20.6271V43.8998H316.09V20.6271H321.715ZM347.212 32.2634C347.212 34.824 346.719 36.9945 345.734 38.7748C344.75 40.5551 343.416 41.9074 341.734 42.8316C340.06 43.7558 338.181 44.218 336.098 44.218C334.007 44.218 332.125 43.7521 330.45 42.8202C328.776 41.8884 327.447 40.5361 326.462 38.7634C325.484 36.9831 324.996 34.8164 324.996 32.2634C324.996 29.7028 325.484 27.5324 326.462 25.7521C327.447 23.9717 328.776 22.6195 330.45 21.6952C332.125 20.771 334.007 20.3089 336.098 20.3089C338.181 20.3089 340.06 20.771 341.734 21.6952C343.416 22.6195 344.75 23.9717 345.734 25.7521C346.719 27.5324 347.212 29.7028 347.212 32.2634ZM341.462 32.2634C341.462 30.7483 341.246 29.468 340.814 28.4225C340.39 27.3771 339.776 26.5854 338.973 26.0475C338.178 25.5096 337.219 25.2407 336.098 25.2407C334.984 25.2407 334.026 25.5096 333.223 26.0475C332.42 26.5854 331.803 27.3771 331.371 28.4225C330.947 29.468 330.734 30.7483 330.734 32.2634C330.734 33.7786 330.947 35.0589 331.371 36.1043C331.803 37.1498 332.42 37.9414 333.223 38.4793C334.026 39.0172 334.984 39.2861 336.098 39.2861C337.219 39.2861 338.178 39.0172 338.973 38.4793C339.776 37.9414 340.39 37.1498 340.814 36.1043C341.246 35.0589 341.462 33.7786 341.462 32.2634ZM370.303 20.6271V43.8998H365.53L356.269 30.468H356.121V43.8998H350.496V20.6271H355.337L364.496 34.0361H364.689V20.6271H370.303Z" fill="white"/>
<path d="M83.7217 49.531V61.1674H81.2615V49.531H83.7217ZM85.3027 51.5594V49.531H94.8595V51.5594H91.297V61.1674H88.8652V51.5594H85.3027ZM106.449 52.8776C106.404 52.4193 106.208 52.0632 105.864 51.8094C105.519 51.5556 105.051 51.4287 104.46 51.4287C104.059 51.4287 103.72 51.4855 103.443 51.5992C103.167 51.709 102.955 51.8624 102.807 52.0594C102.663 52.2564 102.591 52.4799 102.591 52.7299C102.583 52.9382 102.627 53.12 102.722 53.2753C102.82 53.4306 102.955 53.5651 103.125 53.6787C103.296 53.7886 103.493 53.8852 103.716 53.9685C103.94 54.048 104.178 54.1162 104.432 54.173L105.477 54.423C105.985 54.5367 106.451 54.6882 106.875 54.8776C107.299 55.067 107.667 55.2999 107.977 55.5764C108.288 55.853 108.529 56.1787 108.699 56.5537C108.873 56.9287 108.962 57.3586 108.966 57.8435C108.962 58.5556 108.78 59.173 108.421 59.6958C108.065 60.2147 107.549 60.6181 106.875 60.906C106.205 61.1901 105.396 61.3321 104.449 61.3321C103.51 61.3321 102.691 61.1882 101.994 60.9003C101.301 60.6124 100.76 60.1863 100.369 59.6219C99.9831 59.0537 99.7804 58.3511 99.7615 57.5139H102.142C102.169 57.9041 102.28 58.2299 102.477 58.4912C102.678 58.7488 102.945 58.9439 103.279 59.0764C103.616 59.2052 103.996 59.2696 104.421 59.2696C104.837 59.2696 105.199 59.209 105.506 59.0878C105.816 58.9666 106.057 58.798 106.227 58.5821C106.398 58.3662 106.483 58.1181 106.483 57.8378C106.483 57.5764 106.405 57.3568 106.25 57.1787C106.099 57.0007 105.875 56.8492 105.58 56.7242C105.288 56.5992 104.93 56.4855 104.506 56.3833L103.239 56.0651C102.258 55.8264 101.483 55.4533 100.915 54.9458C100.347 54.4382 100.065 53.7545 100.068 52.8946C100.065 52.1901 100.252 51.5746 100.631 51.048C101.013 50.5215 101.538 50.1105 102.205 49.8151C102.871 49.5196 103.629 49.3719 104.477 49.3719C105.341 49.3719 106.095 49.5196 106.739 49.8151C107.386 50.1105 107.89 50.5215 108.25 51.048C108.61 51.5746 108.796 52.1844 108.807 52.8776H106.449ZM114.553 61.3378C113.655 61.3378 112.882 61.156 112.234 60.7924C111.591 60.4249 111.094 59.906 110.746 59.2355C110.397 58.5613 110.223 57.7639 110.223 56.8435C110.223 55.9458 110.397 55.1579 110.746 54.4799C111.094 53.8018 111.585 53.2734 112.217 52.8946C112.854 52.5158 113.6 52.3264 114.456 52.3264C115.032 52.3264 115.568 52.4193 116.064 52.6049C116.564 52.7867 117 53.0613 117.371 53.4287C117.746 53.7961 118.038 54.2583 118.246 54.8151C118.454 55.3681 118.558 56.0158 118.558 56.7583V57.423H111.189V55.923H116.28C116.28 55.5746 116.204 55.2658 116.053 54.9969C115.901 54.728 115.691 54.5177 115.422 54.3662C115.157 54.2109 114.848 54.1333 114.496 54.1333C114.128 54.1333 113.803 54.2185 113.519 54.3889C113.238 54.5556 113.019 54.781 112.859 55.0651C112.7 55.3454 112.619 55.6579 112.615 56.0026V57.4287C112.615 57.8605 112.695 58.2336 112.854 58.548C113.017 58.8624 113.246 59.1049 113.541 59.2753C113.837 59.4458 114.187 59.531 114.592 59.531C114.861 59.531 115.108 59.4931 115.331 59.4174C115.555 59.3416 115.746 59.228 115.905 59.0764C116.064 58.9249 116.185 58.7393 116.269 58.5196L118.507 58.6674C118.394 59.2052 118.161 59.6749 117.808 60.0764C117.46 60.4742 117.009 60.7848 116.456 61.0083C115.907 61.228 115.272 61.3378 114.553 61.3378ZM120.138 61.1674V52.4401H122.484V53.9628H122.575C122.734 53.4211 123.002 53.0121 123.377 52.7355C123.752 52.4552 124.183 52.3151 124.672 52.3151C124.793 52.3151 124.924 52.3227 125.064 52.3378C125.204 52.353 125.327 52.3738 125.433 52.4003V54.548C125.32 54.5139 125.163 54.4836 124.962 54.4571C124.761 54.4306 124.577 54.4174 124.411 54.4174C124.055 54.4174 123.736 54.495 123.456 54.6503C123.18 54.8018 122.96 55.0139 122.797 55.2867C122.638 55.5594 122.558 55.8738 122.558 56.2299V61.1674H120.138ZM135.087 52.4401L132.036 61.1674H129.308L126.257 52.4401H128.814L130.627 58.6844H130.717L132.524 52.4401H135.087ZM136.325 61.1674V52.4401H138.746V61.1674H136.325ZM137.541 51.3151C137.181 51.3151 136.873 51.1958 136.615 50.9571C136.361 50.7147 136.234 50.4249 136.234 50.0878C136.234 49.7545 136.361 49.4685 136.615 49.2299C136.873 48.9874 137.181 48.8662 137.541 48.8662C137.901 48.8662 138.208 48.9874 138.462 49.2299C138.719 49.4685 138.848 49.7545 138.848 50.0878C138.848 50.4249 138.719 50.7147 138.462 50.9571C138.208 51.1958 137.901 51.3151 137.541 51.3151ZM144.628 61.3378C143.734 61.3378 142.965 61.1484 142.321 60.7696C141.681 60.3871 141.189 59.8568 140.844 59.1787C140.503 58.5007 140.333 57.7204 140.333 56.8378C140.333 55.9439 140.505 55.1598 140.85 54.4855C141.198 53.8075 141.692 53.2791 142.333 52.9003C142.973 52.5177 143.734 52.3264 144.617 52.3264C145.378 52.3264 146.045 52.4647 146.617 52.7412C147.189 53.0177 147.641 53.406 147.975 53.906C148.308 54.406 148.492 54.9931 148.526 55.6674H146.242C146.177 55.2318 146.007 54.8814 145.73 54.6162C145.458 54.3473 145.1 54.2128 144.656 54.2128C144.281 54.2128 143.954 54.3151 143.673 54.5196C143.397 54.7204 143.181 55.0139 143.026 55.4003C142.87 55.7867 142.793 56.2545 142.793 56.8037C142.793 57.3605 142.868 57.834 143.02 58.2242C143.175 58.6143 143.393 58.9117 143.673 59.1162C143.954 59.3208 144.281 59.423 144.656 59.423C144.933 59.423 145.181 59.3662 145.401 59.2526C145.624 59.1389 145.808 58.9742 145.952 58.7583C146.1 58.5386 146.196 58.2753 146.242 57.9685H148.526C148.488 58.6352 148.306 59.2223 147.98 59.7299C147.658 60.2336 147.213 60.6276 146.645 60.9117C146.077 61.1958 145.404 61.3378 144.628 61.3378ZM154.053 61.3378C153.155 61.3378 152.382 61.156 151.734 60.7924C151.091 60.4249 150.594 59.906 150.246 59.2355C149.897 58.5613 149.723 57.7639 149.723 56.8435C149.723 55.9458 149.897 55.1579 150.246 54.4799C150.594 53.8018 151.085 53.2734 151.717 52.8946C152.354 52.5158 153.1 52.3264 153.956 52.3264C154.532 52.3264 155.068 52.4193 155.564 52.6049C156.064 52.7867 156.5 53.0613 156.871 53.4287C157.246 53.7961 157.538 54.2583 157.746 54.8151C157.954 55.3681 158.058 56.0158 158.058 56.7583V57.423H150.689V55.923H155.78C155.78 55.5746 155.704 55.2658 155.553 54.9969C155.401 54.728 155.191 54.5177 154.922 54.3662C154.657 54.2109 154.348 54.1333 153.996 54.1333C153.628 54.1333 153.303 54.2185 153.019 54.3889C152.738 54.5556 152.519 54.781 152.359 55.0651C152.2 55.3454 152.119 55.6579 152.115 56.0026V57.4287C152.115 57.8605 152.195 58.2336 152.354 58.548C152.517 58.8624 152.746 59.1049 153.041 59.2753C153.337 59.4458 153.687 59.531 154.092 59.531C154.361 59.531 154.608 59.4931 154.831 59.4174C155.055 59.3416 155.246 59.228 155.405 59.0764C155.564 58.9249 155.685 58.7393 155.769 58.5196L158.007 58.6674C157.894 59.2052 157.661 59.6749 157.308 60.0764C156.96 60.4742 156.509 60.7848 155.956 61.0083C155.407 61.228 154.772 61.3378 154.053 61.3378ZM166.899 54.9287L164.683 55.0651C164.645 54.8757 164.564 54.7052 164.439 54.5537C164.314 54.3984 164.149 54.2753 163.945 54.1844C163.744 54.0897 163.503 54.0424 163.223 54.0424C162.848 54.0424 162.532 54.1219 162.274 54.281C162.017 54.4363 161.888 54.6446 161.888 54.906C161.888 55.1143 161.971 55.2905 162.138 55.4344C162.305 55.5783 162.591 55.6939 162.996 55.781L164.575 56.0992C165.424 56.2734 166.056 56.5537 166.473 56.9401C166.89 57.3264 167.098 57.834 167.098 58.4628C167.098 59.0348 166.93 59.5367 166.592 59.9685C166.259 60.4003 165.801 60.7374 165.217 60.9799C164.638 61.2185 163.969 61.3378 163.212 61.3378C162.056 61.3378 161.136 61.0973 160.45 60.6162C159.769 60.1314 159.369 59.4723 159.252 58.6389L161.632 58.5139C161.704 58.8662 161.878 59.1352 162.155 59.3208C162.431 59.5026 162.786 59.5935 163.217 59.5935C163.642 59.5935 163.983 59.5121 164.24 59.3492C164.502 59.1825 164.634 58.9685 164.638 58.7071C164.634 58.4874 164.541 58.3075 164.359 58.1674C164.178 58.0234 163.897 57.9136 163.519 57.8378L162.007 57.5367C161.155 57.3662 160.52 57.0708 160.104 56.6503C159.691 56.2299 159.484 55.6939 159.484 55.0424C159.484 54.4818 159.636 53.9988 159.939 53.5935C160.246 53.1882 160.676 52.8757 161.229 52.656C161.786 52.4363 162.437 52.3264 163.183 52.3264C164.286 52.3264 165.153 52.5594 165.786 53.0253C166.422 53.4912 166.793 54.1257 166.899 54.9287ZM174.814 61.3321C174.257 61.3321 173.761 61.2355 173.325 61.0424C172.89 60.8454 172.545 60.5556 172.291 60.173C172.041 59.7867 171.916 59.3056 171.916 58.7299C171.916 58.245 172.005 57.8378 172.183 57.5083C172.361 57.1787 172.604 56.9136 172.911 56.7128C173.217 56.5121 173.566 56.3605 173.956 56.2583C174.35 56.156 174.763 56.084 175.195 56.0424C175.702 55.9893 176.111 55.9401 176.422 55.8946C176.733 55.8454 176.958 55.7734 177.098 55.6787C177.238 55.584 177.308 55.4439 177.308 55.2583V55.2242C177.308 54.8643 177.195 54.5859 176.967 54.3889C176.744 54.192 176.426 54.0935 176.013 54.0935C175.577 54.0935 175.231 54.1901 174.973 54.3833C174.716 54.5727 174.545 54.8113 174.462 55.0992L172.223 54.9174C172.337 54.3871 172.56 53.9287 172.894 53.5424C173.227 53.1522 173.657 52.853 174.183 52.6446C174.714 52.4325 175.327 52.3264 176.024 52.3264C176.509 52.3264 176.973 52.3833 177.416 52.4969C177.863 52.6105 178.259 52.7867 178.604 53.0253C178.952 53.2639 179.227 53.5708 179.428 53.9458C179.628 54.317 179.729 54.7621 179.729 55.281V61.1674H177.433V59.9571H177.365C177.225 60.2299 177.038 60.4704 176.803 60.6787C176.568 60.8833 176.286 61.0443 175.956 61.1617C175.627 61.2753 175.246 61.3321 174.814 61.3321ZM175.507 59.6617C175.863 59.6617 176.178 59.5916 176.45 59.4514C176.723 59.3075 176.937 59.1143 177.092 58.8719C177.248 58.6295 177.325 58.3549 177.325 58.048V57.1219C177.25 57.1711 177.145 57.2166 177.013 57.2583C176.884 57.2961 176.738 57.3321 176.575 57.3662C176.413 57.3965 176.25 57.4249 176.087 57.4514C175.924 57.4742 175.776 57.495 175.644 57.5139C175.359 57.5556 175.111 57.6219 174.899 57.7128C174.687 57.8037 174.522 57.9268 174.405 58.0821C174.288 58.2336 174.229 58.423 174.229 58.6503C174.229 58.9799 174.348 59.2318 174.587 59.406C174.829 59.5764 175.136 59.6617 175.507 59.6617ZM184.027 56.1219V61.1674H181.607V52.4401H183.913V53.9799H184.016C184.209 53.4723 184.533 53.0708 184.987 52.7753C185.442 52.4761 185.993 52.3264 186.641 52.3264C187.247 52.3264 187.775 52.459 188.226 52.7242C188.677 52.9893 189.027 53.3681 189.277 53.8605C189.527 54.3492 189.652 54.9325 189.652 55.6105V61.1674H187.232V56.0424C187.235 55.5083 187.099 55.0916 186.823 54.7924C186.546 54.4893 186.165 54.3378 185.681 54.3378C185.355 54.3378 185.067 54.4079 184.817 54.548C184.571 54.6882 184.377 54.8927 184.237 55.1617C184.101 55.4268 184.031 55.7469 184.027 56.1219ZM194.776 61.3094C194.113 61.3094 193.512 61.1389 192.975 60.798C192.44 60.4533 192.016 59.9477 191.702 59.281C191.391 58.6105 191.236 57.7886 191.236 56.8151C191.236 55.8151 191.397 54.9836 191.719 54.3208C192.041 53.6541 192.469 53.156 193.003 52.8264C193.541 52.4931 194.13 52.3264 194.77 52.3264C195.259 52.3264 195.666 52.4098 195.992 52.5764C196.321 52.7393 196.586 52.9439 196.787 53.1901C196.992 53.4325 197.147 53.6711 197.253 53.906H197.327V49.531H199.742V61.1674H197.355V59.7696H197.253C197.139 60.0121 196.978 60.2526 196.77 60.4912C196.565 60.7261 196.298 60.9211 195.969 61.0764C195.643 61.2318 195.245 61.3094 194.776 61.3094ZM195.543 59.3833C195.933 59.3833 196.262 59.2772 196.531 59.0651C196.804 58.8492 197.012 58.548 197.156 58.1617C197.304 57.7753 197.378 57.3227 197.378 56.8037C197.378 56.2848 197.306 55.834 197.162 55.4514C197.018 55.0689 196.81 54.7734 196.537 54.5651C196.264 54.3568 195.933 54.2526 195.543 54.2526C195.145 54.2526 194.81 54.3605 194.537 54.5764C194.264 54.7924 194.058 55.0916 193.918 55.4742C193.778 55.8568 193.708 56.2999 193.708 56.8037C193.708 57.3113 193.778 57.7602 193.918 58.1503C194.062 58.5367 194.268 58.8397 194.537 59.0594C194.81 59.2753 195.145 59.3833 195.543 59.3833ZM205.037 51.5594V49.531H214.594V51.5594H211.031V61.1674H208.6V51.5594H205.037ZM218.834 61.3378C217.936 61.3378 217.163 61.156 216.516 60.7924C215.872 60.4249 215.376 59.906 215.027 59.2355C214.679 58.5613 214.504 57.7639 214.504 56.8435C214.504 55.9458 214.679 55.1579 215.027 54.4799C215.376 53.8018 215.866 53.2734 216.499 52.8946C217.135 52.5158 217.881 52.3264 218.737 52.3264C219.313 52.3264 219.849 52.4193 220.345 52.6049C220.845 52.7867 221.281 53.0613 221.652 53.4287C222.027 53.7961 222.319 54.2583 222.527 54.8151C222.735 55.3681 222.84 56.0158 222.84 56.7583V57.423H215.47V55.923H220.561C220.561 55.5746 220.485 55.2658 220.334 54.9969C220.182 54.728 219.972 54.5177 219.703 54.3662C219.438 54.2109 219.129 54.1333 218.777 54.1333C218.41 54.1333 218.084 54.2185 217.8 54.3889C217.52 54.5556 217.3 54.781 217.141 55.0651C216.982 55.3454 216.9 55.6579 216.896 56.0026V57.4287C216.896 57.8605 216.976 58.2336 217.135 58.548C217.298 58.8624 217.527 59.1049 217.823 59.2753C218.118 59.4458 218.468 59.531 218.874 59.531C219.143 59.531 219.389 59.4931 219.612 59.4174C219.836 59.3416 220.027 59.228 220.186 59.0764C220.345 58.9249 220.467 58.7393 220.55 58.5196L222.788 58.6674C222.675 59.2052 222.442 59.6749 222.09 60.0764C221.741 60.4742 221.29 60.7848 220.737 61.0083C220.188 61.228 219.554 61.3378 218.834 61.3378ZM228.362 61.3378C227.468 61.3378 226.699 61.1484 226.056 60.7696C225.415 60.3871 224.923 59.8568 224.578 59.1787C224.237 58.5007 224.067 57.7204 224.067 56.8378C224.067 55.9439 224.239 55.1598 224.584 54.4855C224.932 53.8075 225.427 53.2791 226.067 52.9003C226.707 52.5177 227.468 52.3264 228.351 52.3264C229.112 52.3264 229.779 52.4647 230.351 52.7412C230.923 53.0177 231.376 53.406 231.709 53.906C232.042 54.406 232.226 54.9931 232.26 55.6674H229.976C229.912 55.2318 229.741 54.8814 229.465 54.6162C229.192 54.3473 228.834 54.2128 228.391 54.2128C228.016 54.2128 227.688 54.3151 227.408 54.5196C227.131 54.7204 226.915 55.0139 226.76 55.4003C226.605 55.7867 226.527 56.2545 226.527 56.8037C226.527 57.3605 226.603 57.834 226.754 58.2242C226.91 58.6143 227.127 58.9117 227.408 59.1162C227.688 59.3208 228.016 59.423 228.391 59.423C228.667 59.423 228.915 59.3662 229.135 59.2526C229.359 59.1389 229.542 58.9742 229.686 58.7583C229.834 58.5386 229.931 58.2753 229.976 57.9685H232.26C232.222 58.6352 232.04 59.2223 231.715 59.7299C231.393 60.2336 230.948 60.6276 230.379 60.9117C229.811 61.1958 229.139 61.3378 228.362 61.3378ZM236.23 56.1219V61.1674H233.81V49.531H236.162V53.9799H236.264C236.461 53.4647 236.779 53.0613 237.219 52.7696C237.658 52.4742 238.209 52.3264 238.872 52.3264C239.478 52.3264 240.007 52.459 240.458 52.7242C240.912 52.9855 241.264 53.3624 241.514 53.8549C241.768 54.3435 241.893 54.9287 241.889 55.6105V61.1674H239.469V56.0424C239.473 55.5045 239.336 55.0859 239.06 54.7867C238.787 54.4874 238.404 54.3378 237.912 54.3378C237.583 54.3378 237.291 54.4079 237.037 54.548C236.787 54.6882 236.59 54.8927 236.446 55.1617C236.306 55.4268 236.234 55.7469 236.23 56.1219ZM246.215 56.1219V61.1674H243.794V52.4401H246.101V53.9799H246.203C246.396 53.4723 246.72 53.0708 247.175 52.7753C247.629 52.4761 248.181 52.3264 248.828 52.3264C249.434 52.3264 249.963 52.459 250.413 52.7242C250.864 52.9893 251.215 53.3681 251.465 53.8605C251.715 54.3492 251.84 54.9325 251.84 55.6105V61.1674H249.419V56.0424C249.423 55.5083 249.287 55.0916 249.01 54.7924C248.734 54.4893 248.353 54.3378 247.868 54.3378C247.542 54.3378 247.254 54.4079 247.004 54.548C246.758 54.6882 246.565 54.8927 246.425 55.1617C246.288 55.4268 246.218 55.7469 246.215 56.1219ZM257.69 61.3378C256.808 61.3378 256.045 61.1503 255.401 60.7753C254.761 60.3965 254.266 59.87 253.918 59.1958C253.569 58.5177 253.395 57.7318 253.395 56.8378C253.395 55.9363 253.569 55.1484 253.918 54.4742C254.266 53.7961 254.761 53.2696 255.401 52.8946C256.045 52.5158 256.808 52.3264 257.69 52.3264C258.573 52.3264 259.334 52.5158 259.975 52.8946C260.618 53.2696 261.115 53.7961 261.463 54.4742C261.812 55.1484 261.986 55.9363 261.986 56.8378C261.986 57.7318 261.812 58.5177 261.463 59.1958C261.115 59.87 260.618 60.3965 259.975 60.7753C259.334 61.1503 258.573 61.3378 257.69 61.3378ZM257.702 59.4628C258.103 59.4628 258.439 59.3492 258.708 59.1219C258.976 58.8908 259.179 58.5764 259.315 58.1787C259.456 57.781 259.526 57.3283 259.526 56.8208C259.526 56.3132 259.456 55.8605 259.315 55.4628C259.179 55.0651 258.976 54.7507 258.708 54.5196C258.439 54.2886 258.103 54.173 257.702 54.173C257.297 54.173 256.956 54.2886 256.679 54.5196C256.406 54.7507 256.2 55.0651 256.06 55.4628C255.923 55.8605 255.855 56.3132 255.855 56.8208C255.855 57.3283 255.923 57.781 256.06 58.1787C256.2 58.5764 256.406 58.8908 256.679 59.1219C256.956 59.3492 257.297 59.4628 257.702 59.4628ZM265.98 49.531V61.1674H263.56V49.531H265.98ZM271.862 61.3378C270.98 61.3378 270.217 61.1503 269.573 60.7753C268.932 60.3965 268.438 59.87 268.09 59.1958C267.741 58.5177 267.567 57.7318 267.567 56.8378C267.567 55.9363 267.741 55.1484 268.09 54.4742C268.438 53.7961 268.932 53.2696 269.573 52.8946C270.217 52.5158 270.98 52.3264 271.862 52.3264C272.745 52.3264 273.506 52.5158 274.146 52.8946C274.79 53.2696 275.287 53.7961 275.635 54.4742C275.984 55.1484 276.158 55.9363 276.158 56.8378C276.158 57.7318 275.984 58.5177 275.635 59.1958C275.287 59.87 274.79 60.3965 274.146 60.7753C273.506 61.1503 272.745 61.3378 271.862 61.3378ZM271.874 59.4628C272.275 59.4628 272.61 59.3492 272.879 59.1219C273.148 58.8908 273.351 58.5764 273.487 58.1787C273.627 57.781 273.698 57.3283 273.698 56.8208C273.698 56.3132 273.627 55.8605 273.487 55.4628C273.351 55.0651 273.148 54.7507 272.879 54.5196C272.61 54.2886 272.275 54.173 271.874 54.173C271.468 54.173 271.127 54.2886 270.851 54.5196C270.578 54.7507 270.372 55.0651 270.232 55.4628C270.095 55.8605 270.027 56.3132 270.027 56.8208C270.027 57.3283 270.095 57.781 270.232 58.1787C270.372 58.5764 270.578 58.8908 270.851 59.1219C271.127 59.3492 271.468 59.4628 271.874 59.4628ZM281.663 64.6219C280.879 64.6219 280.207 64.5139 279.646 64.298C279.09 64.0859 278.646 63.7961 278.317 63.4287C277.987 63.0613 277.773 62.6484 277.675 62.1901L279.913 61.8889C279.982 62.0632 280.09 62.2261 280.237 62.3776C280.385 62.5291 280.58 62.6503 280.823 62.7412C281.069 62.8359 281.368 62.8833 281.72 62.8833C282.247 62.8833 282.681 62.7545 283.021 62.4969C283.366 62.2431 283.538 61.817 283.538 61.2185V59.6219H283.436C283.33 59.8643 283.171 60.0935 282.959 60.3094C282.747 60.5253 282.474 60.7014 282.141 60.8378C281.807 60.9742 281.41 61.0424 280.948 61.0424C280.292 61.0424 279.696 60.8908 279.158 60.5878C278.624 60.281 278.198 59.8132 277.879 59.1844C277.565 58.5518 277.408 57.7526 277.408 56.7867C277.408 55.798 277.569 54.9723 277.891 54.3094C278.213 53.6465 278.641 53.1503 279.175 52.8208C279.713 52.4912 280.302 52.3264 280.942 52.3264C281.431 52.3264 281.84 52.4098 282.169 52.5764C282.499 52.7393 282.764 52.9439 282.965 53.1901C283.169 53.4325 283.326 53.6711 283.436 53.906H283.527V52.4401H285.931V61.2526C285.931 61.995 285.749 62.6162 285.385 63.1162C285.021 63.6162 284.518 63.9912 283.874 64.2412C283.234 64.495 282.497 64.6219 281.663 64.6219ZM281.715 59.2242C282.105 59.2242 282.434 59.1276 282.703 58.9344C282.976 58.7374 283.184 58.4571 283.328 58.0935C283.476 57.7261 283.55 57.2867 283.55 56.7753C283.55 56.2639 283.478 55.8208 283.334 55.4458C283.19 55.067 282.982 54.7734 282.709 54.5651C282.436 54.3568 282.105 54.2526 281.715 54.2526C281.317 54.2526 280.982 54.3605 280.709 54.5764C280.436 54.7886 280.23 55.084 280.09 55.4628C279.949 55.8416 279.879 56.2791 279.879 56.7753C279.879 57.2791 279.949 57.7147 280.09 58.0821C280.234 58.4458 280.44 58.728 280.709 58.9287C280.982 59.1257 281.317 59.2242 281.715 59.2242ZM289.351 64.4401C289.044 64.4401 288.756 64.4155 288.487 64.3662C288.222 64.3208 288.002 64.2621 287.828 64.1901L288.374 62.3833C288.658 62.4704 288.913 62.5177 289.141 62.5253C289.372 62.5329 289.571 62.4799 289.737 62.3662C289.908 62.2526 290.046 62.0594 290.152 61.7867L290.294 61.4174L287.163 52.4401H289.709L291.516 58.8492H291.607L293.431 52.4401H295.993L292.601 62.1105C292.438 62.5802 292.217 62.9893 291.936 63.3378C291.66 63.6901 291.309 63.9609 290.885 64.1503C290.461 64.3435 289.949 64.4401 289.351 64.4401Z" fill="white"/>
</svg>
